<svg xmlns="http://www.w3.org/2000/svg" viewBox="0 0 640 480">
  <rect width="640" height="480" rx="36" fill="#f0f6ff"/>
  <path d="M132 190H508C524.568 190 538 203.432 538 220V292C538 308.568 524.568 322 508 322H132C115.432 322 102 308.568 102 292V220C102 203.432 115.432 190 132 190Z" fill="#d9e7ff"/>
  <rect x="142" y="210" width="78" height="70" rx="18" fill="#ffffff" opacity="0.92"/>
  <rect x="242" y="210" width="78" height="70" rx="18" fill="#ffffff" opacity="0.92"/>
  <rect x="342" y="210" width="78" height="70" rx="18" fill="#ffffff" opacity="0.92"/>
  <rect x="442" y="210" width="78" height="70" rx="18" fill="#ffffff" opacity="0.92"/>
  <circle cx="184" cy="362" r="34" fill="#1e57b8"/>
  <circle cx="456" cy="362" r="34" fill="#1e57b8"/>
  <path d="M154 190L186 146H454L486 190" stroke="#1e57b8" stroke-width="18" stroke-linecap="round"/>
</svg>
