<svg xmlns="http://www.w3.org/2000/svg" viewBox="0 0 640 480">
  <rect width="640" height="480" rx="36" fill="#eef6ff"/>
  <path d="M120 180H520C536.568 180 550 193.432 550 210V310C550 326.568 536.568 340 520 340H120C103.432 340 90 326.568 90 310V210C90 193.432 103.432 180 120 180Z" fill="#d7e7ff"/>
  <rect x="130" y="210" width="90" height="74" rx="20" fill="#ffffff" opacity="0.9"/>
  <rect x="250" y="210" width="90" height="74" rx="20" fill="#ffffff" opacity="0.9"/>
  <rect x="370" y="210" width="90" height="74" rx="20" fill="#ffffff" opacity="0.9"/>
  <path d="M140 260H240" stroke="#1e57b8" stroke-width="14" stroke-linecap="round"/>
  <path d="M260 260H360" stroke="#1e57b8" stroke-width="14" stroke-linecap="round"/>
  <path d="M380 260H470" stroke="#1e57b8" stroke-width="14" stroke-linecap="round"/>
  <circle cx="190" cy="372" r="34" fill="#1e57b8"/>
  <circle cx="450" cy="372" r="34" fill="#1e57b8"/>
  <path d="M128 180L156 148H484L512 180" stroke="#1e57b8" stroke-width="18" stroke-linecap="round"/>
</svg>
